<svg xmlns="http://www.w3.org/2000/svg" width="969" height="627" viewBox="0 0 969 627" version="1.1"><path d="M 426 7.509 C 320.551 19.265, 231.109 84.972, 188.478 182 C 160.267 246.208, 156.659 322.280, 178.636 389.500 C 183.459 404.250, 187.001 413.047, 194.253 428.282 C 197.858 435.857, 199.963 441.410, 199.418 441.915 C 198.913 442.383, 156.425 474.545, 105 513.384 C 53.575 552.224, 10.194 585.028, 8.597 586.281 C 5.693 588.560, 5.693 588.560, 8.097 592.268 C 10.867 596.541, 11.263 596.651, 14.846 594.139 C 19.923 590.578, 218.448 473.696, 219.969 473.372 C 220.921 473.169, 224.523 476.873, 229.500 483.173 C 233.900 488.743, 242.938 498.771, 249.585 505.457 C 323.051 579.369, 428.984 608.416, 530.532 582.496 C 549.317 577.701, 567.072 571.045, 586.570 561.488 C 668.055 521.548, 727.399 443.963, 744.383 355.167 C 748.553 333.367, 749.486 322.771, 749.419 298 C 749.339 268.862, 748.326 260.555, 740.391 223.993 C 739.877 221.624, 745.979 217.525, 851.888 149.090 C 913.510 109.272, 963.693 76.313, 963.405 75.847 C 963.117 75.381, 929.649 75, 889.030 75 C 815.178 75, 815.178 75, 774.839 103.687 C 752.653 119.465, 728.984 136.340, 722.242 141.187 C 715.500 146.034, 709.796 150, 709.566 150 C 709.335 150, 707.714 147.497, 705.964 144.437 C 704.213 141.377, 698.948 133.615, 694.263 127.187 C 647.887 63.559, 580.061 21.752, 503.500 9.603 C 479.421 5.782, 448.887 4.957, 426 7.509 M 431.500 19.595 C 429.850 19.820, 423.100 20.729, 416.500 21.616 C 402.546 23.491, 381.762 28.453, 367.500 33.314 C 275.926 64.526, 207.105 140.003, 184.512 234 C 179.126 256.408, 177.627 270.380, 177.592 298.500 C 177.558 326.343, 178.640 337.399, 183.563 359.500 C 201.926 441.939, 256.627 511.918, 332 549.394 C 360.696 563.661, 385.880 571.597, 418 576.493 C 432.789 578.747, 465.648 579.567, 481.561 578.079 C 588.019 568.125, 677.634 501.197, 717.575 401.813 C 725.377 382.401, 731.717 357.810, 735.189 333.500 C 736.935 321.272, 736.916 276.445, 735.159 264 C 733.858 254.785, 729.102 229.792, 728.539 229.213 C 728.385 229.055, 722.104 232.880, 714.581 237.713 C 699.008 247.716, 700.488 244.170, 703.609 264 C 704.431 269.225, 705.372 282.837, 705.700 294.250 C 706.297 315, 706.297 315, 702.873 315 C 699.449 315, 699.449 315, 699.833 304.626 C 700.396 289.443, 696.974 253.641, 694.748 251.415 C 694.457 251.123, 687.718 255.124, 679.773 260.305 C 665.329 269.725, 665.329 269.725, 666.248 277.113 C 667.758 289.240, 666.545 322.764, 664.135 335.500 C 659.821 358.308, 654.134 375.066, 643.943 395 C 616.332 449.012, 566.644 488.447, 508 502.894 C 427.841 522.640, 343.859 494.240, 292.721 430.092 C 267.868 398.916, 252.115 360.232, 247.916 320.065 C 246.456 306.095, 247.238 278.334, 249.468 265 C 262.260 188.496, 315.619 125.123, 388.290 100.123 C 411.924 91.993, 431.042 88.854, 457 88.843 C 491.082 88.828, 518.691 95.140, 549.500 109.990 C 584.656 126.936, 617.761 157.197, 636.714 189.710 C 639.735 194.892, 641.992 197.750, 642.835 197.459 C 644.932 196.734, 668 179.964, 668 179.164 C 668 178.771, 665.916 175.085, 663.369 170.974 C 654.516 156.687, 641.483 140.422, 628.279 127.186 C 616.735 115.612, 615.134 113.618, 616.034 111.936 C 616.604 110.871, 617.537 110, 618.108 110 C 619.900 110, 631.882 121.106, 640.765 131 C 651.045 142.451, 660.936 155.456, 668.279 167.175 C 673.715 175.851, 673.715 175.851, 685.607 167.367 C 692.148 162.701, 697.833 158.554, 698.241 158.151 C 699.168 157.234, 691.898 145.465, 682.705 133 C 638.104 72.525, 573.287 33.378, 498 21.446 C 488.023 19.864, 439.453 18.513, 431.500 19.595 M 401.900 30.820 C 400.478 31.425, 400.782 33.979, 404.647 53.913 C 407.038 66.241, 409.160 76.493, 409.363 76.697 C 409.567 76.900, 411.605 76.767, 413.892 76.401 C 417.088 75.890, 417.941 75.362, 417.578 74.118 C 417.317 73.228, 415.478 63.950, 413.492 53.500 C 408.674 28.160, 409.247 29.988, 406.142 30.070 C 404.689 30.109, 402.780 30.446, 401.900 30.820 M 432.450 39.407 C 423.068 43.493, 419.508 56.523, 425.390 65.250 C 429.005 70.615, 433.502 73, 440 73 C 455.331 73, 463.212 55.724, 453.270 43.909 C 448.558 38.309, 439.478 36.346, 432.450 39.407 M 537.583 38.866 C 537.330 39.276, 534.112 48.811, 530.433 60.056 C 526.754 71.300, 523.540 81.033, 523.290 81.685 C 522.865 82.794, 530.534 85.850, 531.384 84.910 C 531.921 84.316, 544.791 44.853, 545.176 42.620 C 545.416 41.226, 544.538 40.402, 541.772 39.430 C 539.722 38.710, 537.837 38.455, 537.583 38.866 M 494.450 43.351 C 487.240 46.623, 482.834 56.955, 485.085 65.315 C 486.503 70.583, 492.704 76.942, 496.632 77.158 C 500.801 77.387, 501.178 77.359, 504.750 76.564 C 507.254 76.007, 508 76.174, 508 77.290 C 508 78.185, 509.412 78.967, 511.697 79.338 C 513.731 79.668, 515.532 79.801, 515.699 79.634 C 516.494 78.839, 522.093 48.686, 521.657 47.549 C 521.035 45.928, 514.730 44.894, 513.853 46.269 C 513.458 46.889, 511.949 46.388, 509.976 44.983 C 506.051 42.188, 498.713 41.417, 494.450 43.351 M 555.004 50.491 C 553.054 55.295, 552.492 55.911, 550.512 55.414 C 548.635 54.943, 548.052 55.411, 547.093 58.163 C 546.103 61.004, 546.185 61.662, 547.669 62.747 C 549.278 63.924, 549.106 64.736, 545.230 74.257 C 542.936 79.891, 540.781 85.265, 540.442 86.200 C 539.978 87.478, 540.752 88.288, 543.566 89.463 C 545.623 90.323, 547.480 90.853, 547.691 90.642 C 547.903 90.430, 550.239 85.137, 552.883 78.879 C 557.330 68.352, 557.878 67.523, 560.202 67.803 C 562.207 68.045, 562.976 67.471, 564.016 64.960 C 565.321 61.811, 564.906 60.883, 561.687 59.745 C 561.240 59.587, 561.803 57.293, 562.937 54.646 C 564.072 52, 565 49.428, 565 48.931 C 565 48.234, 558.824 45, 557.494 45 C 557.350 45, 556.229 47.471, 555.004 50.491 M 386.204 47.260 C 383.949 47.982, 383.084 48.776, 383.466 49.772 C 383.910 50.928, 383.355 51.106, 380.762 50.639 C 368.803 48.481, 359.604 59.390, 362.940 71.776 C 365.095 79.780, 371.765 85.167, 379.522 85.167 C 384.593 85.167, 387.671 83.793, 390.745 80.156 C 392.609 77.951, 392.991 77.808, 392.995 79.317 C 393 81.179, 393.747 81.136, 399.636 78.935 C 401.747 78.145, 401.713 77.953, 396.636 62.072 C 393.811 53.236, 391.050 46.051, 390.500 46.106 C 389.950 46.160, 388.017 46.679, 386.204 47.260 M 433.798 49.048 C 431.096 51.750, 430.814 52.573, 431.313 56.297 C 432.436 64.670, 440.443 67.711, 446.202 61.952 C 448.904 59.250, 449.186 58.427, 448.687 54.703 C 447.564 46.330, 439.557 43.289, 433.798 49.048 M 500 50.706 C 491.774 53.713, 491.086 65.722, 498.953 68.980 C 504.723 71.371, 511 66.423, 511 59.484 C 511 55.804, 509.414 53.266, 506.020 51.510 C 502.925 49.910, 502.378 49.837, 500 50.706 M 374.201 60.028 C 369.912 64.023, 370.123 70.356, 374.686 74.585 C 378.067 77.718, 382.067 77.656, 385.923 74.411 C 388.412 72.317, 389 71.060, 389 67.834 C 389 59.872, 379.658 54.944, 374.201 60.028 M 335.319 67.101 C 333.569 67.607, 330.576 69.846, 328.668 72.075 C 326.720 74.350, 324.918 75.677, 324.561 75.099 C 323.808 73.880, 317 76.818, 317 78.362 C 317 80.141, 338.141 118, 339.134 118 C 340.456 118, 346 115.082, 346 114.387 C 346 114.078, 344.386 110.939, 342.414 107.412 C 338.828 101, 338.828 101, 343.102 101 C 350.408 101, 355.961 95.840, 357.428 87.688 C 358.769 80.237, 353.819 71.184, 346.616 67.913 C 342.099 65.862, 340.098 65.718, 335.319 67.101 M 570.500 72.871 C 563.145 77.439, 559.815 85.068, 561.880 92.619 C 566.830 110.720, 592.032 110.157, 596.144 91.854 C 597.788 84.536, 593.720 75.975, 586.931 72.464 C 582.886 70.373, 574.175 70.588, 570.500 72.871 M 334.856 76.516 C 326.878 80.850, 331.224 94, 340.634 94 C 342.992 94, 344.522 93.168, 346.510 90.805 C 350.004 86.653, 349.442 81.738, 345.019 77.750 C 341.637 74.701, 338.825 74.360, 334.856 76.516 M 572.923 81.923 C 568.732 86.114, 568.797 91.810, 573.077 95.411 C 577.278 98.946, 580.479 98.721, 584.600 94.600 C 588.825 90.375, 589.080 86.438, 585.411 82.077 C 581.882 77.883, 577.023 77.823, 572.923 81.923 M 645.880 207.328 C 474.500 329.656, 474.500 329.656, 473.940 288.852 C 473.633 266.409, 473.183 247.864, 472.940 247.640 C 472.393 247.135, 283.628 389.833, 283.162 391.104 C 282.782 392.143, 286.194 398.236, 292.809 408.329 C 295.908 413.058, 297.785 415.028, 298.911 414.733 C 299.806 414.500, 331.898 395.789, 370.227 373.154 C 408.556 350.519, 440.155 332, 440.446 332 C 440.737 332, 441.093 347.989, 441.237 367.531 C 441.500 403.063, 441.500 403.063, 687 244.429 C 822.025 157.180, 932.687 85.616, 932.917 85.397 C 933.146 85.179, 907.217 85, 875.297 85 C 817.260 85, 817.260 85, 645.880 207.328 M 444.250 103.009 C 443.012 103.518, 442 104.112, 442 104.328 C 442 104.544, 437.050 119.021, 431 136.500 C 424.950 153.979, 420 168.666, 420 169.140 C 420 169.613, 423.322 170, 427.382 170 C 434.763 170, 434.763 170, 437.132 163.250 C 439.500 156.500, 439.500 156.500, 451.778 156.219 C 464.056 155.938, 464.056 155.938, 466.986 162.469 C 470.218 169.671, 470.046 169.597, 480.176 168.162 C 484.852 167.500, 484.852 167.500, 471.027 135 C 457.202 102.500, 457.202 102.500, 451.851 102.291 C 448.908 102.176, 445.488 102.499, 444.250 103.009 M 290.251 114.273 C 258.307 143.033, 233.909 180.517, 220.460 221.500 C 212.769 244.936, 209.237 265.673, 208.312 292.825 C 207.688 311.150, 207.688 311.150, 210.805 310.825 C 213.922 310.500, 213.922 310.500, 214.428 294 C 215.412 261.906, 221.007 235.032, 232.643 206.500 C 246.189 173.286, 269.436 140.535, 295.688 117.681 C 304.246 110.230, 304.871 109.439, 303.652 107.602 C 302.924 106.506, 301.917 105.483, 301.414 105.328 C 300.911 105.173, 295.888 109.198, 290.251 114.273 M 515.088 115.250 C 499.957 150.183, 491 171.267, 491 171.955 C 491 172.422, 492.238 173.255, 493.750 173.805 C 495.262 174.355, 498.140 175.511, 500.145 176.372 C 503.790 177.939, 503.790 177.939, 508.767 166.358 C 511.504 159.988, 513.970 155.164, 514.247 155.638 C 514.523 156.112, 515.054 161.225, 515.425 167 C 516.525 184.098, 516.219 183.368, 523.628 186.517 C 527.175 188.024, 530.339 188.995, 530.660 188.674 C 530.980 188.353, 530.688 181.358, 530.011 173.129 C 529.333 164.900, 529.080 157.680, 529.448 157.084 C 529.817 156.488, 531.239 156, 532.609 156 C 540.558 156, 548 146.571, 548 136.500 C 548 130.360, 545.937 125.816, 541.672 122.563 C 538.730 120.319, 519.217 111, 517.461 111 C 517.168 111, 516.101 112.912, 515.088 115.250 M 447.612 132.665 C 446.175 136.978, 445 140.843, 445 141.253 C 445 141.664, 447.925 142, 451.500 142 C 455.075 142, 458 141.822, 458 141.605 C 458 140.717, 451.741 126.437, 451.011 125.662 C 450.578 125.200, 449.048 128.352, 447.612 132.665 M 352.500 132.118 C 349.750 133.843, 347.367 135.367, 347.205 135.505 C 346.845 135.812, 360.034 204.206, 360.650 205.226 C 360.891 205.625, 363.802 204.275, 367.119 202.226 C 373.151 198.500, 373.151 198.500, 372.426 193.500 C 370.989 183.582, 370.549 184.345, 381.778 177.274 C 392.056 170.802, 392.056 170.802, 397.485 174.901 C 400.471 177.155, 403.203 179, 403.556 179 C 403.910 179, 406.874 177.349, 410.144 175.330 C 414.897 172.396, 415.830 171.420, 414.795 170.460 C 411.179 167.106, 360.454 129.676, 359.089 129.355 C 358.215 129.150, 355.250 130.393, 352.500 132.118 M 522.194 134.987 C 520.121 139.975, 520.121 139.975, 524.811 141.364 C 531.524 143.352, 535 141.121, 533.639 135.698 C 533.134 133.687, 527.609 130, 525.099 130 C 524.641 130, 523.334 132.244, 522.194 134.987 M 366.003 159.014 C 366.934 163.973, 367.883 168.216, 368.111 168.444 C 368.338 168.672, 371.116 167.273, 374.284 165.335 C 380.043 161.813, 380.043 161.813, 375.771 158.600 C 362.947 148.953, 364.103 148.904, 366.003 159.014 M 568.886 177.905 C 552.049 183.832, 537.517 188.971, 536.593 189.326 C 534.590 190.094, 535.265 191.531, 540.411 197.457 C 543.847 201.414, 543.847 201.414, 549.673 199.578 C 552.878 198.569, 555.989 197.556, 556.586 197.327 C 557.831 196.851, 573 214.187, 573 216.086 C 573 216.775, 571.636 219.754, 569.970 222.707 C 566.615 228.651, 566.549 228.346, 572.719 235.347 C 574.490 237.356, 576.322 239, 576.790 239 C 577.596 239, 611.007 178.608, 610.994 177.176 C 610.978 175.546, 602.683 167.006, 601.172 167.064 C 600.252 167.100, 585.724 171.978, 568.886 177.905 M 308 175.118 C 304.303 176.585, 299.563 181.479, 292.788 190.827 C 288.474 196.779, 287.061 199.461, 287.831 200.231 C 290.214 202.614, 339.570 237.947, 340.500 237.936 C 342.065 237.917, 349.367 226.850, 348.286 226.135 C 347.757 225.786, 342.772 222.210, 337.209 218.189 C 327.094 210.878, 327.094 210.878, 330.165 205.886 C 331.854 203.141, 333.642 199.088, 334.138 196.880 C 337.214 183.190, 321.220 169.875, 308 175.118 M 580.750 188.793 C 576.487 190.230, 573 191.722, 573 192.109 C 573 192.923, 579.910 201.386, 580.861 201.735 C 581.212 201.864, 583.432 198.376, 585.794 193.985 C 588.156 189.593, 589.731 186.040, 589.294 186.090 C 588.857 186.139, 585.013 187.355, 580.750 188.793 M 310.535 191.104 C 308.591 192.811, 307.010 194.723, 307.021 195.354 C 307.033 195.984, 308.902 197.817, 311.175 199.426 C 315.308 202.351, 315.308 202.351, 317.649 199.426 C 320.641 195.687, 320.694 191.599, 317.777 189.557 C 314.811 187.479, 314.615 187.521, 310.535 191.104 M 212.487 335.552 C 206.596 337.047, 202.421 341.239, 201.400 346.683 C 200.834 349.699, 201.202 351.409, 203.238 355.227 C 204.638 357.852, 205.346 360, 204.812 360 C 203.954 360, 204.609 365.816, 205.587 366.887 C 205.782 367.100, 212.277 365.976, 220.022 364.389 C 232.981 361.734, 234.061 361.344, 233.565 359.502 C 233.269 358.401, 233.021 356.712, 233.014 355.750 C 233.006 354.788, 232.361 354, 231.581 354 C 230.451 354, 230.352 353.311, 231.094 350.621 C 231.741 348.279, 231.639 346.082, 230.764 343.466 C 228.435 336.510, 221.145 333.353, 212.487 335.552 M 684.590 336.682 C 682.274 338.999, 681.948 340.056, 682.204 344.432 C 682.380 347.441, 682.022 349.906, 681.322 350.500 C 680.674 351.050, 679.999 352.850, 679.822 354.500 C 679.500 357.500, 679.500 357.500, 692.500 360.212 C 699.650 361.704, 706.027 362.941, 706.671 362.962 C 707.846 363, 709.613 357.280, 708.705 356.372 C 708.439 356.105, 704.390 354.984, 699.708 353.881 C 690.160 351.630, 687.388 349.573, 688.411 345.497 C 688.768 344.077, 689.799 342.630, 690.704 342.283 C 692.152 341.728, 698.898 342.586, 708.606 344.561 C 711.491 345.148, 711.758 344.961, 712.363 341.936 C 712.721 340.146, 712.806 338.472, 712.551 338.218 C 711.717 337.384, 694.586 334.080, 690.886 334.039 C 688.266 334.011, 686.536 334.737, 684.590 336.682 M 213.465 342.952 C 206.601 345.734, 207.318 355.872, 214.475 357.240 C 217.642 357.845, 222.578 355.657, 223.988 353.023 C 225.513 350.174, 224.356 345.363, 221.698 343.501 C 219.353 341.858, 216.613 341.676, 213.465 342.952 M 221.480 371.489 C 214.341 374.417, 208.529 376.967, 208.565 377.156 C 208.601 377.345, 209.141 378.965, 209.765 380.755 C 210.900 384.010, 210.900 384.010, 216.200 381.897 C 227.218 377.502, 228.992 377.046, 231.441 377.978 C 233.979 378.943, 235.399 381.796, 234.503 384.131 C 233.773 386.033, 231.718 387.227, 222.733 390.967 C 215.176 394.113, 215.118 394.166, 216.244 396.821 C 218.084 401.160, 218.338 401.192, 225.774 398.028 C 229.688 396.363, 234.233 395, 235.874 395 C 241.506 395, 244.099 400.612, 239.750 403.392 C 238.512 404.183, 234.044 406.267, 229.821 408.024 C 222.242 411.176, 222.157 411.252, 223.261 413.859 C 223.876 415.311, 224.667 416.850, 225.018 417.278 C 225.581 417.965, 234.045 414.803, 243.794 410.264 C 248.525 408.061, 250.537 403.737, 249.086 398.891 C 248.073 395.513, 244.710 391.737, 241.870 390.790 C 241.189 390.563, 241.249 389.549, 242.047 387.797 C 243.667 384.241, 242.533 380.300, 238.917 376.923 C 237.285 375.397, 236.383 373.881, 236.915 373.553 C 237.896 372.946, 236.481 367.415, 235.131 366.581 C 234.762 366.353, 228.619 368.561, 221.480 371.489 M 681.500 367.412 C 675.821 369.936, 672 375.876, 672 382.179 C 672 390.405, 680.955 397.902, 689.205 396.583 C 697.334 395.283, 702.003 389.705, 701.996 381.300 C 701.991 374.983, 699.172 370.434, 693.729 367.964 C 688.776 365.715, 685.636 365.573, 681.500 367.412 M 681.073 376.635 C 678.338 380.112, 678.455 383.120, 681.452 386.354 C 686.472 391.771, 695 388.761, 695 381.573 C 695 374.650, 685.330 371.222, 681.073 376.635 M 655.250 390.662 C 653.657 391.305, 653.622 396.222, 655.200 397.800 C 658.005 400.605, 663 398.492, 663 394.500 C 663 390.779, 659.391 388.991, 655.250 390.662 M 664.931 396.682 C 664.386 398.115, 663.718 399.647, 663.447 400.085 C 663.010 400.793, 687.184 413, 689.022 413 C 689.855 413, 692.477 407.125, 691.885 406.585 C 691.201 405.961, 677.161 399.046, 671.460 396.525 C 665.922 394.075, 665.922 394.075, 664.931 396.682 M 649.382 405.229 C 647.839 408.212, 647.867 408.393, 650.140 410.146 C 651.438 411.148, 653.329 412.243, 654.341 412.580 C 655.566 412.988, 656.013 413.841, 655.676 415.129 C 655.332 416.448, 655.979 417.595, 657.706 418.727 C 660.030 420.250, 660.341 420.255, 661.416 418.784 C 662.458 417.359, 663.702 417.789, 672.452 422.599 C 677.876 425.580, 682.411 427.902, 682.530 427.760 C 682.649 427.617, 683.445 426.124, 684.299 424.442 C 685.853 421.384, 685.853 421.384, 676.016 415.959 C 667.381 411.196, 666.301 410.307, 667.171 408.681 C 668.288 406.593, 668.359 406.719, 665.079 405.009 C 663.008 403.929, 662.474 403.998, 661.384 405.490 C 660.189 407.124, 659.826 407.074, 655.547 404.682 C 650.983 402.131, 650.983 402.131, 649.382 405.229 M 246.914 415.956 C 239.363 418.244, 234.379 425.330, 235.330 432.422 C 235.739 435.476, 236.830 437.372, 239.675 439.980 C 241.764 441.895, 243.372 444.145, 243.247 444.981 C 243.122 445.816, 243.803 447.505, 244.760 448.734 C 246.500 450.968, 246.500 450.968, 258.250 443.392 C 264.712 439.226, 270 435.392, 270 434.873 C 270 432.806, 266.783 429.146, 265.425 429.667 C 264.360 430.076, 264 429.336, 264 426.742 C 264 422.502, 260.878 418.265, 256.364 416.379 C 252.736 414.863, 250.805 414.776, 246.914 415.956 M 651.848 422.750 C 650.977 424.262, 650.455 426.024, 650.688 426.665 C 650.920 427.306, 650.205 428.118, 649.099 428.469 C 645.238 429.694, 642 434.783, 642 439.626 C 642 447.437, 646.381 452.948, 654.280 455.075 C 662.176 457.202, 670.986 451.249, 670.996 443.781 C 670.999 441.909, 671.421 441.224, 672.352 441.582 C 673.787 442.132, 677.422 437.492, 676.599 436.160 C 676.095 435.344, 654.445 420, 653.799 420 C 653.597 420, 652.719 421.238, 651.848 422.750 M 244.923 425.923 C 243.315 427.531, 242 429.815, 242 431 C 242 433.547, 247.125 439, 249.519 439 C 252.163 439, 256.727 435.895, 257.915 433.288 C 259.450 429.919, 259.284 428.630, 256.927 425.635 C 253.974 421.880, 248.842 422.004, 244.923 425.923 M 653.315 433.007 C 648.540 434.931, 647.753 440.365, 651.589 444.923 C 656.510 450.771, 665 448.028, 665 440.589 C 665 438.008, 664.252 436.548, 661.923 434.589 C 658.697 431.874, 656.932 431.550, 653.315 433.007 M 279.123 437.970 C 276.343 440.347, 275.424 440.657, 273.929 439.723 C 271.370 438.125, 267.377 441.545, 269.216 443.760 C 270.174 444.915, 270.113 445.453, 268.919 446.358 C 268.091 446.986, 264.178 450.132, 260.224 453.348 C 254.347 458.130, 253.204 459.513, 253.963 460.931 C 256.344 465.379, 257.298 465.149, 266.044 458.023 C 273.950 451.581, 274.609 451.242, 276.282 452.756 C 277.939 454.255, 278.228 454.217, 280.203 452.241 C 281.989 450.456, 282.125 449.855, 281.040 448.549 C 279.724 446.962, 280.194 446.387, 286.940 441.331 C 288.321 440.296, 288.221 439.864, 286.076 437.581 C 284.742 436.161, 283.392 435.018, 283.076 435.041 C 282.759 435.063, 280.980 436.381, 279.123 437.970 M 533.750 444.764 C 528.938 447.361, 525 449.965, 525 450.551 C 525 451.138, 525.638 452.491, 526.418 453.557 C 527.808 455.458, 527.949 455.442, 533.418 452.759 C 536.488 451.254, 539.051 450.129, 539.114 450.261 C 539.177 450.392, 539.514 456.350, 539.864 463.500 C 540.500 476.500, 540.500 476.500, 543.500 476.500 C 546.500 476.500, 546.500 476.500, 546.229 460.500 C 545.932 442.953, 545.571 439.989, 543.731 440.022 C 543.054 440.034, 538.563 442.168, 533.750 444.764 M 621.063 443.250 C 619.127 448.242, 625.382 452.148, 628.403 447.834 C 630.385 445.006, 630.387 444.530, 628.429 442.571 C 626.065 440.208, 622.101 440.574, 621.063 443.250 M 377.571 445.571 C 374.225 448.917, 376.839 453.759, 381.377 452.620 C 384.548 451.824, 385.411 449.277, 383.500 446.359 C 381.702 443.616, 379.782 443.361, 377.571 445.571 M 357.223 446.557 C 354.368 448.556, 354.274 453.656, 356.993 458.985 C 358.088 461.134, 358.629 463.111, 358.195 463.380 C 357.078 464.070, 355.492 462.867, 354.144 460.304 C 353.124 458.367, 352.631 458.233, 349.961 459.163 C 347.515 460.016, 347.052 460.629, 347.545 462.359 C 348.621 466.127, 353.675 470, 357.516 470 C 364.519 470, 366.953 463.748, 362.980 455.960 C 360.852 451.790, 361.835 450.499, 364.375 454.125 C 365.504 455.737, 366.485 456.095, 368.432 455.606 C 372.063 454.695, 371.692 451.815, 367.465 448.104 C 363.547 444.664, 360.568 444.214, 357.223 446.557 M 630.143 450.348 C 627.936 452.697, 627.936 452.697, 638.433 461.848 C 644.207 466.882, 649.326 471, 649.810 471 C 651.145 471, 654.254 467.252, 653.853 466.126 C 653.435 464.955, 633.919 448, 632.988 448 C 632.636 448, 631.356 449.057, 630.143 450.348 M 143.496 496.098 C 109.948 521.452, 82.275 542.457, 82 542.776 C 81.030 543.901, 212.621 466.554, 214.335 464.991 C 215.135 464.262, 206.349 450, 205.099 450 C 204.765 450, 177.044 470.744, 143.496 496.098 M 369.228 462.512 C 366.353 468.294, 364 473.396, 364 473.852 C 364 474.567, 368.280 477, 369.539 477 C 369.783 477, 372.460 472.061, 375.488 466.024 C 380.993 455.048, 380.993 455.048, 378.046 453.524 C 376.425 452.686, 374.955 452, 374.778 452 C 374.601 452, 372.103 456.730, 369.228 462.512 M 515.284 452.701 C 509.844 453.754, 505.063 465, 510.056 465 C 511.187 465, 513.436 463.552, 515.052 461.782 C 517.817 458.754, 518.093 458.664, 519.690 460.261 C 521.287 461.858, 521.255 462.099, 519.161 464.329 C 517.289 466.321, 517.099 467.131, 517.968 469.416 C 518.767 471.518, 519.455 471.990, 521.001 471.500 C 525.476 470.079, 528.960 473.337, 526.961 477.072 C 525.878 479.097, 520 479.880, 520 478 C 520 476.558, 515.697 476.770, 513.583 478.315 C 511.897 479.549, 511.983 479.829, 514.969 482.815 C 523.150 490.996, 537.404 482.966, 534.125 472.024 C 533.287 469.227, 532.119 467.784, 529.917 466.826 C 527.297 465.687, 526.946 465.103, 527.423 462.679 C 528.134 459.067, 525.895 454.729, 522.528 453.195 C 519.866 451.982, 519.227 451.938, 515.284 452.701 M 377.706 467.250 C 375.257 473.438, 373.574 478.855, 373.966 479.290 C 374.359 479.724, 375.906 480.174, 377.406 480.290 C 379.852 480.478, 380.380 479.897, 382.548 474.624 C 385.562 467.295, 386.629 466, 389.654 466 C 393.303 466, 393.474 468.257, 390.453 476.541 C 387.633 484.270, 387.750 485.248, 391.626 486.416 C 393.518 486.986, 394.113 486.162, 397.026 478.936 C 398.826 474.470, 400.259 469.395, 400.209 467.658 C 400.091 463.496, 396.090 460, 391.444 460 C 389.550 460, 388 459.622, 388 459.161 C 388 458.459, 383.746 456, 382.532 456 C 382.327 456, 380.155 461.063, 377.706 467.250 M 277.379 459.437 C 273.791 460.998, 269.565 466.223, 268.603 470.287 C 266.907 477.451, 273.643 486.960, 281.450 488.425 C 283.515 488.812, 285.430 488.903, 285.706 488.627 C 286.885 487.448, 284.217 482.481, 282.249 482.191 C 278.812 481.683, 275 477.128, 275 473.530 C 275 471.772, 275.314 470.019, 275.698 469.636 C 276.082 469.252, 280.074 472.597, 284.570 477.070 C 292.744 485.202, 292.744 485.202, 295.565 481.504 C 304.600 469.658, 291.214 453.415, 277.379 459.437 M 492.357 458.992 C 489.020 460.338, 487 464.037, 487 468.799 C 487 472.279, 487.587 473.741, 489.923 476.077 C 491.711 477.865, 493.895 479, 495.548 479 C 498.478 479, 498.407 478.256, 496.395 487.898 C 495.848 490.523, 496.089 490.861, 498.967 491.493 C 500.714 491.876, 502.272 492.035, 502.431 491.845 C 502.589 491.655, 503.911 486.209, 505.369 479.742 C 507.766 469.111, 507.886 467.662, 506.616 464.623 C 504.186 458.807, 498.439 456.537, 492.357 458.992 M 619.223 463.119 C 605.813 469.756, 607.507 488.844, 621.792 492.066 C 630.275 493.979, 641 485.874, 641 477.550 C 641 475.398, 640.543 475, 638.078 475 C 635.612 475, 634.970 475.560, 633.974 478.577 C 632.536 482.936, 627.632 486.314, 624 485.448 C 616.838 483.740, 614.705 476.141, 619.923 470.923 C 621.531 469.315, 623.792 468, 624.948 468 C 626.855 468, 629 464.789, 629 461.935 C 629 460.286, 623.633 460.936, 619.223 463.119 M 473.328 462.803 C 468.950 463.122, 467.692 464.041, 466.555 467.750 C 465.946 469.735, 466.217 470, 468.853 470 C 472.237 470, 472.444 470.556, 473.494 482.500 C 474.614 495.239, 474.871 496, 478.052 496 C 479.609 496, 481.110 495.632, 481.388 495.182 C 482.033 494.138, 478.932 463.669, 478.113 463 C 477.776 462.725, 475.623 462.636, 473.328 462.803 M 281.605 464.830 C 281.323 465.286, 283.500 468.037, 286.443 470.943 C 291.307 475.748, 291.853 476.040, 292.448 474.164 C 292.812 473.018, 292.446 470.830, 291.627 469.245 C 289.617 465.358, 283.063 462.471, 281.605 464.830 M 494.384 466.442 C 493.413 468.971, 494.455 471.491, 496.598 471.798 C 499.591 472.228, 501.437 469.685, 500.034 467.064 C 498.767 464.696, 495.205 464.303, 494.384 466.442 M 406.190 468.296 C 400.502 471.593, 398.347 479.903, 401.566 486.128 C 403.208 489.302, 409.693 492.939, 413.782 492.978 C 415.037 492.990, 417.697 492.318, 419.692 491.484 C 423.319 489.969, 423.319 489.969, 421.060 487.563 C 419.252 485.639, 418.124 485.268, 415.419 485.707 C 408.179 486.882, 404.104 479.790, 409.250 474.970 C 411.794 472.587, 416.099 472.875, 419.144 475.630 C 421.166 477.460, 426 476.781, 426 474.668 C 426 473.956, 424.650 472.081, 423.001 470.501 C 420.543 468.146, 418.964 467.567, 414.251 467.292 C 410.683 467.084, 407.623 467.465, 406.190 468.296 M 434.500 472.356 C 425.240 476.587, 423.767 489.242, 431.898 494.713 C 436.595 497.874, 443.882 497.866, 447.567 494.696 C 450.246 492.391, 450.246 492.391, 447.663 490.699 C 445.586 489.338, 444.597 489.227, 442.614 490.130 C 439.431 491.580, 435.358 490.538, 433.953 487.913 C 432.867 485.883, 432.985 485.860, 441.175 486.500 C 445.754 486.858, 450.063 487.327, 450.750 487.544 C 451.623 487.818, 452 486.584, 452 483.454 C 452 474.779, 442.451 468.724, 434.500 472.356 M 305.258 479.745 C 297.733 489.427, 295.667 493.291, 295.667 497.681 C 295.667 506.230, 305.558 512.437, 313.452 508.840 C 315.880 507.734, 328.034 493.075, 327.969 491.332 C 327.951 490.875, 326.760 489.641, 325.321 488.592 C 322.746 486.714, 322.682 486.714, 321.314 488.592 C 315.859 496.077, 310.698 502.179, 309.403 502.676 C 308.561 502.999, 306.776 502.763, 305.436 502.153 C 301.388 500.308, 302.241 496.365, 308.500 488 C 311.525 483.957, 314 480.533, 314 480.392 C 314 480.251, 312.690 479.203, 311.088 478.063 C 308.176 475.989, 308.176 475.989, 305.258 479.745 M 436.544 478.195 C 434.603 479.321, 434.603 479.335, 436.544 480.094 C 437.620 480.515, 440.075 480.876, 442 480.896 C 445.500 480.933, 445.500 480.933, 443.139 478.967 C 440.451 476.727, 439.306 476.593, 436.544 478.195 M 591.020 486.752 C 583.520 490.519, 580.629 500.599, 584.995 507.759 C 593.228 521.262, 614.088 514.580, 612.721 498.878 C 611.772 487.987, 600.783 481.846, 591.020 486.752 M 592.455 494.455 C 589.646 497.263, 589.372 499.885, 591.463 503.928 C 593.946 508.730, 599.604 509.487, 603.545 505.545 C 606.848 502.243, 606.684 498.530, 603.077 494.923 C 599.470 491.316, 595.757 491.152, 592.455 494.455 M 325.157 505.218 C 317.820 517.435, 317.820 517.435, 320.021 519.218 C 321.231 520.198, 322.734 520.995, 323.361 520.989 C 323.987 520.983, 326.075 518.222, 328 514.853 C 329.925 511.484, 332.718 507.412, 334.206 505.805 C 336.501 503.326, 337.227 503.051, 338.984 503.992 C 340.647 504.882, 341.539 504.721, 343.499 503.179 C 345.838 501.339, 345.866 501.188, 344.142 499.629 C 343.152 498.733, 341.114 498, 339.612 498 C 338.111 498, 337.130 497.599, 337.432 497.109 C 337.867 496.406, 334.012 493, 332.782 493 C 332.623 493, 329.192 498.498, 325.157 505.218 M 563.888 502.500 C 558.703 505.318, 557.814 513.355, 562.337 516.523 C 563.525 517.356, 566.664 518, 569.531 518 C 572.329 518, 575.419 518.586, 576.399 519.303 C 578.037 520.500, 578.049 520.714, 576.556 521.954 C 575.662 522.696, 573.604 523.265, 571.983 523.219 C 568.750 523.127, 568.564 523.295, 567.650 527.127 C 567.107 529.403, 567.390 529.827, 569.762 530.294 C 573.999 531.130, 577.767 530.020, 581.024 526.978 C 583.348 524.807, 584 523.337, 584 520.273 C 584 514.473, 580.965 512.046, 572.975 511.459 C 569.502 511.203, 566.467 510.801, 566.230 510.564 C 565.156 509.489, 567.394 508, 570.084 508 C 572.347 508, 573.280 507.393, 574.025 505.435 C 574.561 504.024, 575 502.449, 575 501.935 C 575 500.491, 566.818 500.907, 563.888 502.500 M 357.538 511.250 C 356.790 513.038, 354.338 518.740, 352.089 523.922 C 349.840 529.105, 348 533.663, 348 534.051 C 348 535.228, 354.334 537.485, 354.725 536.448 C 354.922 535.926, 356.976 531.675, 359.291 527 C 363.273 518.958, 363.674 518.500, 366.728 518.500 C 368.942 518.500, 370.452 517.793, 371.536 516.248 C 373.609 513.294, 372.666 512, 368.441 512 C 366.548 512, 365 511.622, 365 511.161 C 365 510.418, 360.717 508, 359.402 508 C 359.125 508, 358.286 509.462, 357.538 511.250 M 542.196 513.488 C 538.728 516.406, 538.053 518.398, 539.141 522.500 C 540.131 526.230, 542.691 527.868, 548.772 528.660 C 554.624 529.423, 556.513 530.677, 554.841 532.691 C 554.119 533.562, 552.300 533.997, 550.173 533.809 C 547.110 533.537, 546.572 533.847, 545.723 536.366 C 544.553 539.833, 545.847 540.964, 551 540.981 C 555.345 540.995, 560.739 537.817, 562 534.500 C 563.234 531.253, 562.260 526.545, 559.914 524.422 C 558.876 523.483, 555.510 522.468, 552.279 522.121 C 548.085 521.670, 546.500 521.089, 546.500 520 C 546.500 518.975, 547.522 518.503, 549.729 518.508 C 552.340 518.515, 553.183 517.971, 554.138 515.666 C 555.585 512.173, 554.290 511.038, 548.827 511.015 C 546.356 511.005, 544.185 511.815, 542.196 513.488 M 443.438 519.068 C 441.729 520.957, 441.697 521.369, 443.068 523.811 C 444.923 527.118, 447.543 527.724, 450.074 525.433 C 452.495 523.242, 452.530 520.789, 450.171 518.655 C 447.729 516.445, 445.700 516.569, 443.438 519.068 M 527.191 518.351 C 525.372 519.010, 524.202 519.869, 524.593 520.260 C 524.984 520.650, 523.305 520.883, 520.862 520.777 C 511.537 520.371, 506 525.534, 506 534.634 C 506 541.349, 508.633 545.971, 514.074 548.808 C 519.037 551.396, 523.463 551.247, 527.856 548.344 C 529.310 547.383, 532.222 546.503, 534.326 546.389 C 536.430 546.275, 538.374 545.960, 538.645 545.688 C 539.252 545.081, 531.771 516.970, 531.030 517.076 C 530.739 517.118, 529.011 517.692, 527.191 518.351 M 378.206 520.127 C 366.960 525.694, 367.168 544.060, 378.519 547.800 C 380.689 548.515, 383.532 548.832, 384.838 548.504 C 386.349 548.125, 387.628 548.451, 388.356 549.400 C 388.985 550.220, 390.706 551.181, 392.179 551.536 C 394.819 552.172, 394.904 552.032, 397.992 541.841 C 399.716 536.153, 401.592 530.007, 402.163 528.183 C 403.361 524.350, 403.292 524.231, 399.191 523.055 C 397.161 522.473, 395.990 522.531, 395.758 523.226 C 395.565 523.806, 394.183 523.148, 392.689 521.763 C 390.448 519.685, 386.155 517.997, 383.125 518.001 C 382.781 518.001, 380.568 518.958, 378.206 520.127 M 430.414 524.055 C 429.842 529.109, 429.462 529.996, 428.115 529.420 C 419.913 525.917, 416.941 525.820, 411.237 528.873 C 408.581 530.295, 405 537.745, 405 541.848 C 405 551.960, 414.122 559.245, 422.935 556.172 C 425.436 555.301, 426 555.371, 426 556.552 C 426 557.540, 427.111 558, 429.500 558 C 431.425 558, 433.013 557.888, 433.030 557.750 C 433.046 557.612, 434.319 548.835, 435.858 538.245 C 437.398 527.655, 438.435 518.768, 438.162 518.495 C 437.890 518.223, 436.189 518, 434.383 518 C 431.108 518, 431.097 518.017, 430.414 524.055 M 381.229 526.669 C 379.547 527.346, 377 532.361, 377 534.996 C 377 538.053, 381.384 542, 384.780 542 C 391.393 542, 395.159 531.976, 390.089 527.871 C 387.890 526.091, 383.984 525.561, 381.229 526.669 M 516.025 528.975 C 513.176 531.824, 512.594 535.313, 514.388 538.784 C 517.191 544.204, 523.955 544.758, 527.393 539.849 C 529.684 536.578, 529.386 533.613, 526.411 530.077 C 523.343 526.431, 519.027 525.973, 516.025 528.975 M 465 529.121 C 460.987 530.716, 457.049 535.106, 455.942 539.217 C 452.939 550.367, 462.101 560.156, 473.766 558.263 C 478.470 557.500, 484.499 551.486, 485.406 546.652 C 487.632 534.781, 475.968 524.760, 465 529.121 M 442.654 537.250 C 442.301 541.788, 442.009 548.313, 442.006 551.750 C 442 558, 442 558, 445.364 558 C 448.608 558, 448.751 557.834, 449.364 553.360 C 449.714 550.809, 450 544.284, 450 538.860 C 450 529, 450 529, 446.648 529 C 443.296 529, 443.296 529, 442.654 537.250 M 415.174 536.314 C 412.195 539.486, 412.261 544.957, 415.314 547.826 C 419.899 552.133, 426.579 549.513, 427.621 543 C 428.825 535.472, 420.278 530.881, 415.174 536.314 M 467.315 536.007 C 462.795 537.828, 461.515 545.029, 465.039 548.811 C 468.093 552.090, 472.168 552.062, 475.750 548.739 C 478.858 545.855, 478.764 540.673, 475.545 537.455 C 472.978 534.887, 470.971 534.534, 467.315 536.007" stroke="none" fill="#000000" fill-rule="evenodd"/><path d="M 645.880 207.328 C 474.500 329.656, 474.500 329.656, 473.940 288.852 C 473.633 266.409, 473.183 247.864, 472.940 247.640 C 472.393 247.135, 283.628 389.833, 283.162 391.104 C 282.782 392.143, 286.194 398.236, 292.809 408.329 C 295.908 413.058, 297.785 415.028, 298.911 414.733 C 299.806 414.500, 331.898 395.789, 370.227 373.154 C 408.556 350.519, 440.155 332, 440.446 332 C 440.737 332, 441.093 347.989, 441.237 367.531 C 441.500 403.063, 441.500 403.063, 687 244.429 C 822.025 157.180, 932.687 85.616, 932.917 85.397 C 933.146 85.179, 907.217 85, 875.297 85 C 817.260 85, 817.260 85, 645.880 207.328 M 214.370 299 C 214.370 304.775, 214.535 307.137, 214.737 304.250 C 214.939 301.363, 214.939 296.637, 214.737 293.750 C 214.535 290.863, 214.370 293.225, 214.370 299 M 667.320 299 C 667.320 302.575, 667.502 304.038, 667.723 302.250 C 667.945 300.462, 667.945 297.538, 667.723 295.750 C 667.502 293.962, 667.320 295.425, 667.320 299 M 699.300 307 C 699.300 310.025, 699.487 311.262, 699.716 309.750 C 699.945 308.238, 699.945 305.762, 699.716 304.250 C 699.487 302.738, 699.300 303.975, 699.300 307 M 143.496 496.098 C 109.948 521.452, 82.275 542.457, 82 542.776 C 81.030 543.901, 212.621 466.554, 214.335 464.991 C 215.135 464.262, 206.349 450, 205.099 450 C 204.765 450, 177.044 470.744, 143.496 496.098 M 653.966 497.750 C 648.500 503.500, 648.500 503.500, 654.250 498.034 C 657.413 495.028, 660 492.440, 660 492.284 C 660 491.542, 659.044 492.408, 653.966 497.750" stroke="none" fill="#d22329" fill-rule="evenodd"/><path d="M 449.206 5.741 C 452.895 5.932, 459.195 5.934, 463.206 5.743 C 467.218 5.553, 464.200 5.396, 456.500 5.395 C 448.800 5.393, 445.518 5.549, 449.206 5.741 M 429.500 20.132 C 330.507 29.608, 242.414 93.305, 201.389 185.072 C 162.045 273.080, 171.511 377.318, 226.084 457 C 246.793 487.236, 278.052 517.205, 309 536.493 C 374.559 577.352, 453.595 589.216, 528.754 569.481 C 567.065 559.421, 606.341 539.075, 636.500 513.665 C 648.095 503.895, 665.733 485.979, 675.006 474.549 C 691.332 454.426, 708.773 424.155, 718.497 399.061 C 725.925 379.893, 732.436 353.325, 735.177 331 C 736.837 317.474, 736.837 280.526, 735.177 267 C 733.637 254.456, 729.219 231.829, 728.087 230.691 C 727.645 230.247, 721.328 233.763, 714.049 238.506 C 701.864 246.445, 700.865 247.325, 701.440 249.618 C 704.816 263.068, 707.669 312.731, 705.207 315.193 C 704.624 315.776, 703.045 315.977, 701.700 315.640 C 699.253 315.025, 699.253 315.025, 699.179 297.263 C 699.113 281.254, 697.297 261.166, 695.250 253.801 C 694.500 251.102, 694.500 251.102, 680.206 260.301 C 665.911 269.500, 665.911 269.500, 666.664 278 C 667.857 291.469, 667.294 316.508, 665.527 328.500 C 653.024 413.396, 591.955 481.447, 509 502.924 C 502.675 504.561, 492.550 506.635, 486.500 507.533 C 471.837 509.709, 442.181 509.713, 428 507.541 C 380.562 500.274, 341.511 480.700, 308.406 447.594 C 275.246 414.434, 255.371 374.607, 248.503 327.553 C 246.431 313.356, 246.399 285.121, 248.439 270.695 C 253.901 232.064, 269.472 196.055, 293.712 166 C 301.507 156.335, 320.360 138.115, 330.204 130.734 C 386.430 88.573, 458.449 77.044, 524.871 99.570 C 571.405 115.351, 611.767 147.773, 637.155 189.764 C 642.151 198.028, 642.151 198.028, 645.326 195.803 C 653.345 190.182, 666.581 180.671, 667.333 179.989 C 669.154 178.338, 650.305 151.169, 637.345 136.763 C 631.011 129.723, 628.929 127.655, 618.653 118.199 C 613.807 113.739, 613.807 113.739, 616.239 111.307 C 618.671 108.874, 618.671 108.874, 628.924 118.623 C 644.343 133.284, 661.234 154.284, 670.449 170.250 C 671.956 172.863, 673.486 175, 673.848 175 C 675.430 175, 698.469 157.713, 698.191 156.735 C 698.022 156.137, 694.576 150.665, 690.534 144.574 C 643.332 73.438, 567.212 27.864, 482.500 20.020 C 469.697 18.835, 442.451 18.892, 429.500 20.132 M 404.199 29.986 C 402.384 30.416, 400.707 30.960, 400.473 31.194 C 400.112 31.555, 406.772 67.694, 408.522 74.875 C 409.042 77.010, 409.509 77.195, 413.133 76.709 C 415.351 76.412, 417.364 75.970, 417.606 75.727 C 417.849 75.484, 416.237 65.884, 414.024 54.393 C 409.105 28.856, 409.133 28.976, 408.231 29.102 C 407.829 29.159, 406.015 29.556, 404.199 29.986 M 438.500 37.516 C 437.950 37.686, 436.271 38.096, 434.768 38.427 C 431.103 39.235, 425.019 44.710, 423.351 48.702 C 418.566 60.155, 426.994 73.205, 439.258 73.331 C 450.423 73.446, 457.500 66.523, 457.500 55.488 C 457.500 50.374, 457.026 48.645, 454.705 45.296 C 451.439 40.583, 442.487 36.285, 438.500 37.516 M 530.127 60.094 C 526.090 72.246, 523.173 82.534, 523.644 82.957 C 524.605 83.822, 531.194 86.149, 531.562 85.755 C 532.148 85.125, 546.155 40.829, 545.847 40.579 C 545.343 40.169, 538.812 38, 538.084 38 C 537.744 38, 534.163 47.942, 530.127 60.094 M 492.922 44.274 C 483.086 50.902, 481.189 65.036, 489.077 72.923 C 493.087 76.933, 498.892 78.676, 503.516 77.257 C 506.236 76.422, 507 76.468, 507 77.466 C 507 78.915, 514.929 80.514, 516.035 79.288 C 516.566 78.700, 521.305 54.969, 522.368 47.582 C 522.573 46.156, 515.031 44.569, 513.817 45.783 C 513.124 46.476, 511.664 46.033, 509.259 44.401 C 504.515 41.182, 497.590 41.128, 492.922 44.274 M 555.047 49.627 C 553.921 52.172, 553 54.656, 553 55.146 C 553 55.637, 551.943 55.773, 550.651 55.448 C 548.704 54.960, 548.074 55.408, 546.974 58.063 C 545.794 60.912, 545.845 61.413, 547.430 62.572 C 549.106 63.798, 548.936 64.547, 544.606 75.063 C 542.073 81.216, 540 86.651, 540 87.141 C 540 88.611, 546.913 91.492, 547.915 90.440 C 548.408 89.923, 550.856 84.550, 553.356 78.500 C 555.856 72.450, 558.261 67.579, 558.701 67.676 C 559.140 67.773, 560.207 68.128, 561.072 68.465 C 562.134 68.878, 563.026 68.238, 563.822 66.492 C 565.472 62.869, 565.297 61.445, 563.073 60.403 C 561.190 59.521, 561.199 59.371, 563.452 53.878 C 565.758 48.255, 565.758 48.255, 562.345 46.628 C 560.468 45.732, 558.518 45, 558.013 45 C 557.507 45, 556.173 47.082, 555.047 49.627 M 385.750 47.162 C 384.238 47.715, 383 48.761, 383 49.488 C 383 50.449, 381.927 50.666, 379.069 50.282 C 376.242 49.903, 373.871 50.368, 370.629 51.938 C 360.623 56.781, 358.987 71.921, 367.545 80.478 C 373.838 86.772, 383.247 87.356, 389.526 81.843 C 391.336 80.254, 392.971 79.409, 393.159 79.966 C 393.455 80.846, 400.630 79.607, 401.845 78.467 C 402.035 78.288, 399.796 70.910, 396.869 62.071 C 391.262 45.139, 391.268 45.147, 385.750 47.162 M 436.359 47.445 C 432.001 49.341, 430.319 54.434, 432.402 59.421 C 435.325 66.414, 443.962 66.599, 447.330 59.739 C 449.692 54.927, 448.258 49.702, 443.966 47.483 C 440.533 45.707, 440.355 45.706, 436.359 47.445 M 497.261 52.529 C 494.625 54.376, 492.794 60.334, 493.942 63.335 C 497.247 71.974, 508.846 70.667, 510.573 61.462 C 511.251 57.846, 509.066 52.623, 506.455 51.621 C 503.637 50.540, 499.521 50.946, 497.261 52.529 M 374.712 60.012 C 369.721 63.938, 370.623 71.741, 376.514 75.601 C 383.537 80.203, 391.666 71.056, 387.578 63.151 C 384.780 57.740, 379.300 56.403, 374.712 60.012 M 332.811 68.037 C 330.782 69.109, 328.328 71.329, 327.357 72.972 C 326.128 75.053, 325.356 75.586, 324.811 74.730 C 324.221 73.802, 323.105 74.037, 320.264 75.688 C 318.194 76.892, 316.605 78.331, 316.732 78.886 C 316.943 79.800, 337.807 118.106, 338.468 118.791 C 338.913 119.253, 346.002 114.873, 345.977 114.151 C 345.965 113.793, 344.472 110.749, 342.659 107.386 C 339.363 101.273, 339.363 101.273, 343.106 101.273 C 348.432 101.273, 353.115 98.215, 355.750 93.015 C 358.470 87.649, 358.579 82.846, 356.104 77.500 C 351.446 67.438, 341.553 63.419, 332.811 68.037 M 574.365 70.953 C 562.876 73.693, 557.317 88.542, 564.083 98.416 C 570.022 107.083, 583.234 108.694, 590.882 101.683 C 594.013 98.813, 596.951 92.325, 596.978 88.218 C 597.028 80.719, 590.913 72.971, 583.465 71.096 C 578.673 69.889, 578.815 69.891, 574.365 70.953 M 333.923 77.923 C 329.630 82.216, 330.220 88.058, 335.367 92.228 C 338.636 94.876, 342.716 94.437, 346.077 91.077 C 349.379 87.775, 349.600 86.371, 347.579 81.534 C 346.186 78.201, 341.725 75, 338.473 75 C 337.578 75, 335.531 76.315, 333.923 77.923 M 575.420 80.145 C 572.741 81.445, 570 86.099, 570 89.349 C 570 92.488, 573.654 96.735, 577 97.484 C 580.209 98.202, 585.715 94.879, 587.025 91.434 C 588.620 87.238, 588.164 85.010, 585.077 81.923 C 582.065 78.911, 579.091 78.364, 575.420 80.145 M 448.560 102.918 C 442.620 103.500, 442.620 103.500, 431.361 136 C 425.169 153.875, 420.079 168.857, 420.051 169.294 C 420.023 169.730, 423.262 169.955, 427.250 169.794 C 434.500 169.500, 434.500 169.500, 436.868 162.750 C 439.237 156, 439.237 156, 449.118 155.813 C 454.553 155.709, 460.206 155.597, 461.679 155.563 C 464.042 155.507, 464.661 156.236, 466.929 161.745 C 469.500 167.989, 469.500 167.989, 477.145 167.995 C 484.791 168, 484.791 168, 472.315 138.750 C 465.453 122.662, 459.151 107.813, 458.311 105.750 C 457.470 103.688, 456.269 102.076, 455.641 102.168 C 455.014 102.261, 451.827 102.598, 448.560 102.918 M 290.746 113.409 C 266.929 134.614, 248.529 159.062, 233.478 189.500 C 216.460 223.917, 208 259.895, 208 297.851 C 208 310.537, 208.185 312.143, 209.582 311.607 C 210.452 311.273, 212.027 311, 213.082 311 C 214.885 311, 215 310.127, 215 296.461 C 215 288.464, 215.475 277.551, 216.055 272.211 C 220.911 227.486, 239.928 181.955, 268.560 146.500 C 275.162 138.324, 291.382 121.682, 301.486 112.716 C 305.435 109.213, 305.454 109.159, 303.581 107.090 C 302.541 105.940, 301.353 105, 300.940 105 C 300.528 105, 295.940 108.784, 290.746 113.409 M 516.071 113.250 C 515.587 114.487, 510.155 127.200, 504 141.500 C 497.845 155.800, 492.404 168.538, 491.908 169.806 C 491.082 171.920, 491.477 172.321, 496.627 174.599 C 499.718 175.966, 502.682 176.939, 503.212 176.763 C 503.743 176.586, 506.190 171.729, 508.649 165.970 C 511.109 160.212, 513.478 155.138, 513.914 154.697 C 514.350 154.255, 515.012 158.530, 515.384 164.197 C 516.723 184.546, 516.272 183.346, 523.735 186.411 C 527.317 187.882, 530.442 188.891, 530.679 188.654 C 530.917 188.416, 530.619 182.435, 530.017 175.361 C 529.415 168.288, 528.828 161.169, 528.711 159.543 C 528.515 156.797, 528.804 156.534, 532.779 155.840 C 538.768 154.796, 542.836 151.549, 545.606 145.599 C 548.645 139.074, 548.689 132.793, 545.734 127.500 C 543.785 124.010, 541.905 122.706, 531 117.275 C 524.125 113.852, 518.151 111.039, 517.725 111.025 C 517.299 111.011, 516.555 112.013, 516.071 113.250 M 447.214 133.004 C 444.086 142, 444.086 142, 451.043 142 C 454.869 142, 458 141.625, 458 141.167 C 458 140.196, 451.569 125.236, 450.837 124.504 C 450.565 124.232, 448.935 128.057, 447.214 133.004 M 352.161 132.599 C 349.225 134.522, 347.023 136.637, 347.268 137.298 C 347.513 137.959, 350.582 153.463, 354.087 171.750 C 357.592 190.037, 360.852 205, 361.330 205 C 361.808 205, 364.643 203.537, 367.629 201.750 C 372.378 198.907, 372.998 198.173, 372.582 195.890 C 372.320 194.455, 371.826 191.080, 371.483 188.390 C 370.896 183.783, 371.023 183.408, 373.680 181.914 C 375.231 181.042, 380.002 178.156, 384.282 175.500 C 393.003 170.088, 391.046 169.921, 400.594 176.888 C 403.689 179.146, 403.689 179.146, 409.804 175.279 C 415.920 171.413, 415.920 171.413, 387.612 150.206 C 372.043 138.543, 358.898 129.023, 358.402 129.051 C 357.906 129.078, 355.098 130.675, 352.161 132.599 M 522.372 133.783 C 521.342 136.372, 520.369 138.774, 520.208 139.120 C 519.869 139.852, 527.367 143, 529.449 143 C 531.749 143, 534 140.057, 534 137.051 C 534 133.870, 532.857 132.674, 527.795 130.559 C 524.243 129.075, 524.243 129.075, 522.372 133.783 M 364.282 152.101 C 364.598 153.420, 365.399 157.425, 366.063 161 C 366.727 164.575, 367.566 167.834, 367.928 168.243 C 368.290 168.651, 371.188 167.358, 374.368 165.368 C 377.549 163.379, 379.780 161.430, 379.326 161.037 C 377.712 159.643, 366.477 151.340, 365.104 150.527 C 364.018 149.885, 363.836 150.235, 364.282 152.101 M 567.801 178.405 C 550.366 184.543, 535.833 189.834, 535.504 190.162 C 535.176 190.491, 537.102 193.147, 539.785 196.065 C 544.663 201.370, 544.663 201.370, 550.768 199.087 C 554.126 197.831, 557.335 197.089, 557.899 197.438 C 558.463 197.786, 562.324 202.078, 566.478 206.974 C 574.030 215.876, 574.030 215.876, 570.555 222.198 C 567.080 228.521, 567.080 228.521, 571.937 234.010 C 574.608 237.030, 577 239.275, 577.252 239 C 577.503 238.725, 585.235 224.672, 594.433 207.772 C 611.156 177.044, 611.156 177.044, 606.921 172.022 C 604.592 169.260, 601.970 167.055, 601.093 167.123 C 600.217 167.190, 585.235 172.267, 567.801 178.405 M 307.500 175.840 C 302.841 178.062, 300.356 180.634, 292.516 191.351 C 287.748 197.868, 287.004 199.412, 288.136 200.446 C 288.886 201.130, 300.951 209.926, 314.946 219.992 C 340.392 238.294, 340.392 238.294, 343.041 235.119 C 344.499 233.374, 346.313 230.784, 347.072 229.365 C 348.665 226.388, 349.488 227.262, 335.665 217.251 C 327.037 211.002, 327.037 211.002, 330.635 204.455 C 333.885 198.543, 334.192 197.331, 333.802 191.941 C 333.310 185.132, 331.438 182.004, 325.226 177.610 C 319.908 173.848, 313.102 173.168, 307.500 175.840 M 580.774 188.501 C 577.074 189.794, 573.584 191.139, 573.017 191.489 C 572.011 192.111, 579.552 202, 581.033 202 C 581.590 202, 587.967 190.950, 589.833 186.750 C 590.376 185.529, 587.910 186.006, 580.774 188.501 M 309.422 191.655 C 307.580 193.665, 306.245 195.588, 306.455 195.927 C 306.664 196.265, 308.873 198.006, 311.362 199.794 C 315.889 203.045, 315.889 203.045, 318.445 198.685 C 321.572 193.349, 321.584 192.898, 318.686 190.174 C 315.424 187.110, 313.269 187.455, 309.422 191.655 M 211.500 335.154 C 202.467 338.468, 198.439 348.287, 203.026 355.810 C 204.136 357.631, 204.776 359.554, 204.448 360.085 C 203.334 361.887, 205.091 366.999, 206.829 367.014 C 207.748 367.022, 214.283 365.817, 221.352 364.335 C 234.204 361.642, 234.204 361.642, 233.625 358.079 C 233.307 356.119, 232.611 354.370, 232.078 354.193 C 231.538 354.013, 231.333 351.796, 231.614 349.185 C 232.175 343.978, 230.031 339.377, 225.733 336.561 C 222.602 334.509, 215.240 333.782, 211.500 335.154 M 684.495 336.414 C 681.425 339.484, 680.506 343.145, 681.844 346.982 C 682.667 349.344, 682.610 350, 681.579 350 C 680.519 350, 678.446 356.847, 679.281 357.590 C 679.401 357.698, 685.689 359.047, 693.253 360.590 C 701.866 362.346, 707.347 363.040, 707.917 362.447 C 708.418 361.926, 708.979 360.171, 709.164 358.547 C 709.499 355.606, 709.467 355.587, 701.500 353.979 C 690.059 351.670, 686.789 349.319, 688.570 344.679 C 689.589 342.023, 692.535 341.787, 701.986 343.606 C 706.941 344.559, 711.263 345.070, 711.592 344.741 C 711.921 344.413, 712.259 342.655, 712.345 340.836 C 712.500 337.528, 712.500 337.528, 705 335.860 C 693.524 333.307, 687.437 333.472, 684.495 336.414 M 213.500 343.155 C 210.452 344.822, 209 347.093, 209 350.191 C 209 358.858, 222.527 359.366, 224.559 350.775 C 225.076 348.591, 224.604 347.450, 222.179 345.025 C 218.986 341.833, 216.785 341.358, 213.500 343.155 M 221.503 371.101 C 214.905 373.847, 209.129 376.471, 208.668 376.932 C 207.957 377.643, 210.403 384, 211.388 384 C 211.573 384, 214.999 382.650, 219 381 C 223.001 379.350, 227.493 378, 228.983 378 C 231.664 378, 235 380.637, 235 382.756 C 235 384.632, 230.211 387.741, 222.904 390.607 C 219.051 392.119, 215.678 393.713, 215.408 394.149 C 214.918 394.941, 217.652 401, 218.500 401 C 218.746 401, 222.346 399.650, 226.500 398 C 235.316 394.498, 238.046 394.288, 240.435 396.928 C 243.986 400.852, 241.608 402.865, 225.750 409.362 C 221.462 411.119, 221.475 411.084, 223.552 415.101 C 225.334 418.546, 225.004 418.589, 237.759 413.250 C 247.715 409.082, 250.420 406.220, 249.675 400.638 C 249.144 396.656, 244.803 391, 242.278 391 C 241.255 391, 241.179 390.533, 241.965 389.066 C 244.025 385.216, 243.181 380.981, 239.650 377.450 C 237.808 375.608, 236.679 373.721, 237.142 373.258 C 238.192 372.208, 235.935 365.980, 234.531 366.054 C 233.964 366.084, 228.101 368.355, 221.503 371.101 M 680.218 367.606 C 673.025 371.276, 669.872 381.607, 673.695 388.985 C 677.467 396.268, 688.426 399.231, 695.010 394.750 C 700.486 391.023, 702.388 387.654, 702.447 381.573 C 702.504 375.752, 700.774 372.414, 695.763 368.672 C 692.186 366.002, 684.409 365.469, 680.218 367.606 M 683.229 374.669 C 682.530 374.951, 681.294 376.465, 680.482 378.034 C 676.666 385.413, 687.131 392.748, 692.826 386.686 C 696.417 382.863, 695.571 377.864, 690.928 375.463 C 688.075 373.988, 685.566 373.729, 683.229 374.669 M 656.338 390.030 C 651.500 391.910, 652.745 399, 657.913 399 C 659.476 399, 661.295 398.350, 661.954 397.555 C 664.892 394.016, 660.663 388.350, 656.338 390.030 M 664.559 396.887 C 663.701 398.544, 663 400.180, 663 400.522 C 663 401.189, 687.422 413, 688.802 413 C 689.257 413, 690.353 411.484, 691.236 409.631 C 692.843 406.261, 692.843 406.261, 680.280 400.381 C 673.371 397.146, 667.357 394.359, 666.917 394.186 C 666.477 394.014, 665.416 395.229, 664.559 396.887 M 649.134 405.227 C 646.833 408.827, 646.833 408.827, 652.995 412.243 C 655.294 413.518, 655.982 414.481, 655.555 415.826 C 654.777 418.278, 659.232 420.491, 661.778 418.918 C 663.151 418.069, 665.387 418.905, 672.803 423.041 C 677.919 425.894, 682.218 428.064, 682.355 427.864 C 683.764 425.813, 686 421.972, 686 421.603 C 686 421.347, 681.689 418.806, 676.420 415.957 C 667.970 411.388, 666.905 410.513, 667.399 408.546 C 667.823 406.855, 667.335 405.982, 665.379 404.935 C 663.101 403.716, 662.651 403.757, 661.535 405.283 C 660.354 406.898, 659.976 406.846, 655.748 404.483 C 651.225 401.955, 651.225 401.955, 649.134 405.227 M 243.530 417.282 C 233.188 423.139, 231.996 436.368, 241.299 442.040 C 243.059 443.114, 243.926 443.994, 243.224 443.996 C 242.245 443.999, 242.301 444.682, 243.467 446.937 C 244.302 448.552, 245.416 450.139, 245.941 450.464 C 246.642 450.897, 268.126 437.947, 270.859 435.444 C 271.542 434.818, 266.844 428.978, 266.051 429.468 C 265.613 429.739, 265.007 428.431, 264.704 426.561 C 263.075 416.522, 252.811 412.025, 243.530 417.282 M 651.572 422.531 C 650.624 423.978, 650.093 425.800, 650.393 426.581 C 650.692 427.361, 650.361 428, 649.656 428 C 647.742 428, 643.202 433.122, 641.961 436.682 C 638.368 446.988, 651.410 458.660, 662.447 455.018 C 666.907 453.545, 671 448.716, 671 444.923 C 671 443.053, 671.516 442, 672.432 442 C 673.219 442, 674.772 440.724, 675.883 439.165 C 677.901 436.330, 677.901 436.330, 666.916 428.621 C 660.875 424.380, 655.339 420.683, 654.614 420.405 C 653.889 420.127, 652.520 421.084, 651.572 422.531 M 245.455 425.455 C 242.358 428.552, 242.136 433.908, 244.997 436.497 C 250.961 441.895, 261.213 434.181, 257.534 427.065 C 255.054 422.270, 249.394 421.515, 245.455 425.455 M 651.923 434.923 C 650.315 436.531, 649 438.815, 649 440 C 649 441.185, 650.315 443.469, 651.923 445.077 C 655.551 448.705, 659.768 448.941, 662.826 445.686 C 666.565 441.705, 665.307 436.244, 660.020 433.510 C 656.017 431.440, 655.277 431.569, 651.923 434.923 M 279.363 437.539 C 275.744 440.548, 275.068 440.787, 273.963 439.456 C 272.847 438.111, 272.427 438.190, 270.362 440.129 C 268.550 441.832, 268.280 442.633, 269.161 443.694 C 270.028 444.739, 269.922 445.350, 268.708 446.281 C 258.114 454.408, 253.072 458.686, 253.039 459.576 C 253.018 460.167, 254.059 461.647, 255.354 462.863 C 257.708 465.074, 257.708 465.074, 265.994 458.384 C 273.302 452.484, 274.511 451.838, 276.236 452.915 C 278.912 454.586, 282.224 451.739, 281.404 448.472 C 280.965 446.724, 281.636 445.616, 284.420 443.493 C 286.389 441.991, 287.984 440.479, 287.964 440.131 C 287.944 439.784, 286.932 438.285, 285.714 436.800 C 283.500 434.101, 283.500 434.101, 279.363 437.539 M 534.500 444.566 C 530.100 446.983, 526.126 449.094, 525.670 449.257 C 524.512 449.670, 527.073 455.007, 528.411 454.969 C 529.010 454.952, 531.300 453.829, 533.500 452.474 C 539.917 448.522, 540 448.636, 540 461.418 C 540 467.698, 540.273 473.548, 540.607 474.418 C 540.960 475.339, 542.383 476, 544.013 476 C 546.812 476, 546.812 476, 546.274 459.750 C 545.775 444.694, 545.025 439.869, 543.215 440.086 C 542.822 440.133, 538.900 442.149, 534.500 444.566 M 621.011 442.487 C 619.145 444.736, 620.597 448.861, 623.513 449.593 C 626.969 450.460, 628.831 449.520, 629.582 446.530 C 630.406 443.247, 628.544 441, 625 441 C 623.485 441, 621.690 441.669, 621.011 442.487 M 359.962 445.810 C 354.802 447.402, 353.715 452.133, 357.071 458.394 C 358.490 461.042, 358.818 462.582, 358.113 463.287 C 356.877 464.523, 354 462.488, 354 460.378 C 354 458.834, 351.230 458.568, 349.115 459.908 C 346.900 461.311, 348.656 465.819, 352.277 468.027 C 356.402 470.543, 359.074 470.516, 362.365 467.927 C 365.609 465.376, 365.862 460.821, 363 456.500 C 360.634 452.927, 360.517 452, 362.433 452 C 363.221 452, 364.161 452.933, 364.523 454.072 C 364.938 455.381, 365.730 455.934, 366.672 455.572 C 367.492 455.258, 368.802 455, 369.582 455 C 371.743 455, 371.279 452.485, 368.511 449.195 C 366.033 446.251, 362.748 444.950, 359.962 445.810 M 377.082 446.401 C 375.456 448.360, 376.564 451.727, 379.099 452.531 C 381.840 453.401, 384.163 451.204, 383.801 448.086 C 383.575 446.147, 382.853 445.425, 380.914 445.199 C 379.492 445.034, 377.768 445.575, 377.082 446.401 M 630.071 450.118 C 628.835 451.790, 627.976 453.247, 628.162 453.357 C 628.631 453.634, 643.929 466.857, 647.059 469.691 C 649.618 472.008, 649.618 472.008, 652.346 469.161 C 655.074 466.313, 655.074 466.313, 644.787 457.359 C 639.129 452.434, 634.009 448.106, 633.409 447.741 C 632.809 447.377, 631.307 448.446, 630.071 450.118 M 369.567 462.419 C 366.505 468.127, 364 473.053, 364 473.367 C 364 473.680, 365.230 474.580, 366.732 475.368 C 369.465 476.799, 369.465 476.799, 374.732 466.738 C 377.630 461.205, 380 456.352, 380 455.954 C 380 455.556, 378.905 454.513, 377.567 453.636 C 375.133 452.041, 375.133 452.041, 369.567 462.419 M 514.963 453.381 C 509.077 455.283, 505.525 466.186, 511.368 464.413 C 512.541 464.057, 514.441 462.618, 515.590 461.215 C 516.959 459.544, 518.253 458.883, 519.340 459.300 C 521.605 460.170, 521.425 462.526, 518.914 464.866 C 515.926 467.649, 517.795 471, 522.335 471 C 527.920 471, 529.845 475.020, 525.950 478.545 C 523.970 480.337, 523.785 480.339, 520.564 478.604 C 517.912 477.176, 516.794 477.040, 515.114 477.939 C 512.266 479.463, 512.439 480.350, 516.204 483.518 C 518.913 485.798, 520.083 486.138, 523.780 485.721 C 530.296 484.987, 534 481.060, 534 474.885 C 534 470.956, 533.550 469.791, 531.365 468.073 C 529.916 466.933, 528.171 466, 527.488 466 C 526.622 466, 526.384 464.714, 526.701 461.750 C 526.985 459.106, 526.655 456.837, 525.828 455.746 C 523.843 453.125, 519.010 452.073, 514.963 453.381 M 377.943 467.641 C 373.848 477.831, 373.745 478.340, 375.524 479.641 C 378.661 481.935, 379.674 481.221, 381.964 475.096 C 385.437 465.809, 389.539 462.726, 392.393 467.258 C 393.251 468.621, 392.973 470.420, 391.157 475.258 C 387.593 484.752, 387.607 484.500, 390.563 485.847 C 392.045 486.522, 393.386 486.946, 393.542 486.787 C 394.746 485.568, 400 470.352, 400 468.085 C 400 463.994, 397.163 461.045, 392.509 460.300 C 390.313 459.948, 387.919 459.061, 387.187 458.330 C 383.948 455.091, 382.333 456.718, 377.943 467.641 M 276.092 460.161 C 268.335 465.485, 266.113 472.870, 270.121 480.001 C 273.911 486.745, 286.029 492.282, 285.985 487.250 C 285.962 484.619, 284.681 483.086, 280.932 481.203 C 276.600 479.028, 274.462 475.278, 275.407 471.513 C 276.122 468.666, 276.122 468.666, 284.603 477.083 C 293.084 485.500, 293.084 485.500, 295.039 483 C 300.374 476.179, 299.803 468.109, 293.558 462.057 C 290.687 459.273, 289.123 458.594, 284.782 458.246 C 280.445 457.898, 278.890 458.241, 276.092 460.161 M 492.110 459.396 C 487.564 461.915, 485.752 468.167, 488.085 473.288 C 489.332 476.024, 493.877 479, 496.809 479 C 498.747 479, 498.764 479.178, 497.346 484.607 C 496.540 487.692, 496.024 490.357, 496.198 490.532 C 496.372 490.706, 497.801 490.995, 499.373 491.174 C 502.203 491.497, 502.255 491.406, 504.575 482 C 508.261 467.056, 507.740 462.468, 502.020 459.510 C 498.466 457.673, 495.285 457.636, 492.110 459.396 M 619.120 462.710 C 613.777 465.343, 610 471.344, 610 477.200 C 610 485.489, 614.440 491.054, 622.219 492.513 C 629.514 493.882, 637.704 488.455, 640.466 480.422 C 642.180 475.437, 641.537 473.836, 638.146 474.645 C 634.440 475.529, 634 475.877, 634 477.923 C 634 478.915, 632.814 480.914, 631.364 482.364 C 625.936 487.792, 617 484.437, 617 476.971 C 617 473.295, 621.959 468, 625.401 468 C 626.831 468, 628.006 467.438, 628.014 466.750 C 628.021 466.063, 628.299 464.488, 628.630 463.250 C 629.169 461.240, 628.874 461.002, 625.867 461.023 C 624.015 461.035, 620.979 461.795, 619.120 462.710 M 469.400 463.765 C 468.310 464.493, 466 468.345, 466 469.434 C 466 469.745, 467.364 470, 469.031 470 C 470.699 470, 472.241 470.563, 472.459 471.250 C 472.677 471.938, 473.394 477.811, 474.052 484.302 C 475.250 496.104, 475.250 496.104, 478.375 495.435 C 480.094 495.067, 481.543 494.706, 481.596 494.633 C 481.687 494.506, 478.243 463.771, 478.079 463.250 C 477.891 462.654, 470.397 463.099, 469.400 463.765 M 282.265 464.822 C 281.405 465.364, 282.691 467.238, 286.515 471.015 C 292 476.432, 292 476.432, 292 472.890 C 292 467.814, 285.747 462.632, 282.265 464.822 M 494.447 466.059 C 492.128 468.621, 493.467 471.352, 497.265 471.808 C 500.657 472.216, 501.952 468.709, 499.435 465.928 C 497.243 463.506, 496.745 463.519, 494.447 466.059 M 407.500 467.954 C 406.400 468.409, 404.375 469.992, 403 471.471 C 400.981 473.643, 400.500 475.189, 400.500 479.500 C 400.500 483.812, 400.981 485.356, 403 487.526 C 404.375 489.003, 406.625 490.649, 408 491.183 C 411.558 492.566, 418.394 492.395, 420.848 490.863 C 422.935 489.560, 422.935 489.560, 420.856 487.347 C 419.203 485.587, 418.291 485.319, 416.397 486.039 C 411.822 487.779, 407 484.373, 407 479.402 C 407 473.548, 413.323 471.106, 418.314 475.032 C 420.114 476.449, 421.670 476.870, 423.448 476.424 C 426.445 475.672, 426.542 475.218, 424.369 472.117 C 421.395 467.870, 412.819 465.754, 407.500 467.954 M 435.445 472.058 C 428.414 474.125, 424.749 483.747, 428.345 490.700 C 431.493 496.788, 441.260 498.681, 447.711 494.453 C 450.251 492.789, 450.278 492.676, 448.445 491.336 C 447.136 490.379, 445.213 490.145, 442.270 490.587 C 439.146 491.055, 437.324 490.787, 435.498 489.591 C 430.732 486.468, 432.416 485.718, 442.500 486.474 C 452 487.187, 452 487.187, 451.985 483.843 C 451.948 475.340, 443.867 469.582, 435.445 472.058 M 301.777 484.104 C 295.215 493.379, 293.972 497.622, 296.355 502.618 C 298.740 507.620, 303.429 510.203, 309.217 509.706 C 314.916 509.215, 315.676 508.622, 323.127 498.834 C 328.991 491.130, 328.991 491.130, 326.091 489.065 C 324.496 487.929, 322.966 487, 322.690 487 C 322.415 487, 319.846 490.162, 316.981 494.026 C 310.675 502.532, 308.799 503.754, 305.433 501.548 C 301.473 498.953, 302.164 496.601, 309.828 486.599 C 314.350 480.698, 314.350 480.698, 311.619 478.349 C 310.117 477.057, 308.576 476.003, 308.194 476.007 C 307.812 476.011, 304.925 479.655, 301.777 484.104 M 435.729 478.092 C 432.879 479.751, 434.739 481, 440.059 481 C 445.194 481, 446.394 479.816, 443.066 478.035 C 440.642 476.738, 438.019 476.758, 435.729 478.092 M 590.500 486.861 C 586.071 489.597, 584.218 492.061, 583.244 496.515 C 581.915 502.585, 583.291 506.948, 587.882 511.231 C 591.501 514.607, 592.474 515, 597.211 514.996 C 606.571 514.990, 612.993 508.887, 612.993 500 C 612.993 488.523, 600.049 480.962, 590.500 486.861 M 592.455 494.455 C 591.096 495.813, 590 498.081, 590 499.531 C 590 502.831, 595.005 508, 598.201 508 C 603.916 508, 607.218 502.255, 604.511 497.021 C 601.685 491.556, 596.465 490.444, 592.455 494.455 M 324.638 505.433 C 316.405 519.094, 316.570 517.745, 322.692 521.345 C 323.458 521.796, 325.335 519.602, 327.947 515.206 C 333.581 505.722, 335.571 503.755, 338.844 504.433 C 340.597 504.796, 342.333 504.339, 343.951 503.086 C 346.042 501.467, 346.208 500.955, 345.078 499.594 C 344.351 498.717, 342.706 498, 341.423 498 C 340.140 498, 337.966 496.875, 336.591 495.500 C 335.216 494.125, 333.650 493, 333.111 493 C 332.572 493, 328.759 498.595, 324.638 505.433 M 565.378 501.398 C 559.515 504.023, 557.298 510.124, 560.529 514.739 C 562.253 517.200, 567.624 518.986, 573.323 518.994 C 576.423 518.999, 577.084 519.331, 576.815 520.750 C 576.574 522.017, 575.343 522.583, 572.356 522.802 C 568.622 523.075, 568.170 523.402, 567.603 526.236 C 566.888 529.809, 568.028 530.961, 572.300 530.985 C 580.186 531.028, 586.184 523.694, 583.816 516.901 C 582.478 513.065, 578.361 511, 572.050 511 C 568.228 511, 567 510.635, 567 509.500 C 567 508.459, 568.047 508, 570.421 508 C 573.426 508, 573.923 507.627, 574.516 504.928 C 574.887 503.239, 575.002 501.669, 574.772 501.439 C 573.538 500.205, 568.096 500.181, 565.378 501.398 M 353.186 520.587 C 350.263 527.537, 348.090 533.791, 348.356 534.486 C 348.623 535.181, 350.177 536.214, 351.809 536.784 C 354.773 537.817, 354.781 537.810, 357.540 531.159 C 362.186 519.961, 363.845 517.719, 367.014 518.353 C 369.035 518.757, 370.309 518.300, 371.906 516.600 C 373.808 514.575, 373.886 514.150, 372.555 513.046 C 371.724 512.356, 369.796 511.728, 368.272 511.651 C 366.747 511.574, 365.050 510.971, 364.500 510.310 C 363.950 509.650, 362.375 508.849, 361 508.530 C 358.622 507.979, 358.241 508.566, 353.186 520.587 M 542.367 512.772 C 539.197 515.340, 537.941 518.453, 538.647 521.986 C 539.368 525.590, 542.090 527.716, 547.052 528.551 C 554.068 529.732, 555 530.068, 555 531.412 C 555 533.253, 552.596 534.069, 549.183 533.387 C 546.676 532.885, 546.277 533.191, 545.307 536.350 C 544.032 540.505, 544.710 541, 551.682 541 C 555.519 541, 556.732 540.468, 559.727 537.473 C 562.856 534.344, 563.186 533.527, 562.660 530.223 C 561.855 525.164, 558.464 522.452, 551.988 521.685 C 546.142 520.993, 545.474 520.660, 546.521 518.966 C 546.952 518.269, 548.416 518.033, 550.151 518.380 C 552.552 518.860, 553.253 518.540, 554.162 516.545 C 554.767 515.215, 554.993 513.424, 554.663 512.564 C 553.808 510.337, 545.193 510.483, 542.367 512.772 M 430.467 521.821 C 429.336 530.159, 429.456 530.022, 425.221 527.820 C 415.733 522.887, 405 530.413, 405 542 C 405 551.361, 410.723 557.234, 419.500 556.877 C 422.250 556.766, 425.175 556.935, 426 557.254 C 426.825 557.572, 428.727 558.102, 430.228 558.430 C 432.489 558.925, 433.040 558.640, 433.454 556.763 C 434.280 553.019, 439.034 518.696, 438.757 518.482 C 438.616 518.373, 436.835 518.026, 434.801 517.713 C 431.101 517.142, 431.101 517.142, 430.467 521.821 M 443.571 518.571 C 440.539 521.604, 442.734 527, 447 527 C 449.233 527, 452 524.434, 452 522.363 C 452 517.569, 446.878 515.265, 443.571 518.571 M 526.750 518.162 C 525.237 518.715, 524 519.467, 524 519.833 C 524 520.200, 521.843 520.500, 519.206 520.500 C 513.064 520.500, 509.372 522.906, 506.885 528.526 C 500.819 542.240, 515.439 556.620, 527.279 548.585 C 529.236 547.257, 531.078 546.411, 531.372 546.705 C 531.666 546.999, 533.553 546.931, 535.565 546.554 C 539.037 545.902, 539.192 545.708, 538.598 542.738 C 536.792 533.709, 531.604 517.010, 530.625 517.079 C 530.006 517.122, 528.263 517.610, 526.750 518.162 M 377.054 520.165 C 372.105 523.528, 369.571 528.401, 369.571 534.558 C 369.571 543.405, 375.689 549.497, 383.750 548.678 C 386.789 548.369, 388 548.616, 388 549.543 C 388 550.902, 393.331 552.532, 394.801 551.623 C 396.440 550.610, 403.395 524.995, 402.322 523.922 C 401.763 523.363, 399.775 522.799, 397.903 522.668 C 396.031 522.538, 393.256 521.603, 391.736 520.591 C 387.223 517.588, 381.108 517.410, 377.054 520.165 M 380.289 528.250 C 377.259 531.561, 376.685 534.490, 378.411 537.829 C 380.931 542.700, 385.661 543.430, 389.545 539.545 C 392.793 536.298, 392.857 531.153, 389.686 528.174 C 386.704 525.373, 382.894 525.404, 380.289 528.250 M 516.431 529.306 C 509.780 535.027, 517.275 546.134, 524.998 542.001 C 528.215 540.279, 529.241 536.513, 527.578 532.533 C 525.183 526.801, 520.813 525.536, 516.431 529.306 M 463.218 529.663 C 457.961 532.254, 455.500 536.563, 455.500 543.177 C 455.500 552.503, 461.370 558.500, 470.500 558.500 C 478.962 558.500, 484.967 552.893, 485.681 544.324 C 486.673 532.434, 474.163 524.269, 463.218 529.663 M 442.887 529.250 C 442.826 529.388, 442.488 535.877, 442.137 543.671 C 441.500 557.841, 441.500 557.841, 445.363 558.208 C 447.488 558.409, 449.366 558.108, 449.537 557.537 C 449.709 556.967, 450.051 550.313, 450.298 542.750 C 450.747 529, 450.747 529, 446.873 529 C 444.743 529, 442.949 529.112, 442.887 529.250 M 415.455 536.455 C 413.907 538.002, 413 540.052, 413 542 C 413 548.110, 420.574 552.284, 424.512 548.345 C 428.501 544.356, 428.573 538.215, 424.663 535.477 C 421.576 533.314, 418.241 533.669, 415.455 536.455 M 468.352 536.066 C 465.653 537.064, 463 540.793, 463 543.588 C 463 547.310, 466.734 551, 470.500 551 C 474.132 551, 478 547.344, 478 543.912 C 478 538.520, 472.909 534.380, 468.352 536.066" stroke="none" fill="#ffffff" fill-rule="evenodd"/></svg>